<?xml version="1.0" encoding="utf-8"?>
<!-- Generator: Adobe Illustrator 19.0.0, SVG Export Plug-In . SVG Version: 6.00 Build 0)  -->
<svg version="1.1" id="Layer_1" xmlns="http://www.w3.org/2000/svg" xmlns:xlink="http://www.w3.org/1999/xlink" x="0px" y="0px"
	 viewBox="0 0 425 647" style="enable-background:new 0 0 425 647;" xml:space="preserve">
<style type="text/css">
	.st0{fill:#E85D5D;}
	.st1{fill:none;stroke:#000000;stroke-miterlimit:10;}
</style>
<g id="XMLID_15_">
	<g id="XMLID_18_">
		<path id="XMLID_20_" class="st0" d="M424.5,12.5v622c0,6.6-5.4,12-12,12h-400c-6.6,0-12-5.4-12-12v-622c0-6.6,5.4-12,12-12h400
			C419.1,0.5,424.5,5.9,424.5,12.5z"/>
	</g>
	<g id="XMLID_19_">
		<path id="XMLID_21_" class="st1" d="M412.5,646.5h-400c-6.6,0-12-5.4-12-12v-622c0-6.6,5.4-12,12-12h400c6.6,0,12,5.4,12,12v622
			C424.5,641.1,419.1,646.5,412.5,646.5z"/>
	</g>
</g>
</svg>
